<svg width="1440" height="164" viewBox="0 0 1440 164" fill="none" xmlns="http://www.w3.org/2000/svg">
<path fill-rule="evenodd" clip-rule="evenodd" d="M1440 16.7721C1363.62 29.4424 1361.5 69.1523 1200 84.8922C1136 91.1296 1073.9 74.5431 987.5 59.0891C899.5 43.3493 860 30.0282 780 39.9949C700 49.9616 620.5 97.0195 584.5 116.114C501.919 159.914 330.5 180.621 210.5 148.11C129.212 126.086 39 84.3761 0 69.4103V3.05176e-05H40C80 3.05176e-05 160 3.05176e-05 240 3.05176e-05C320 3.05176e-05 400 3.05176e-05 480 3.05176e-05C560 3.05176e-05 640 3.05176e-05 720 3.05176e-05C800 3.05176e-05 880 3.05176e-05 960 3.05176e-05C1040 3.05176e-05 1120 3.05176e-05 1200 3.05176e-05C1280 3.05176e-05 1360 3.05176e-05 1400 3.05176e-05H1440V16.7721Z" fill="#FF671B" fill-opacity="0.48"/>
</svg>
