<svg width="1440" height="139" viewBox="0 0 1440 139" fill="none" xmlns="http://www.w3.org/2000/svg">
<path fill-rule="evenodd" clip-rule="evenodd" d="M1440 25.803C1363.62 38.4734 1350.84 39.9472 1273.5 50.832C1257 53.1543 1061.4 84.6062 975 69.1522C887 53.4123 800 37.5109 720 47.4776C640 57.4443 606 71.9905 504.5 111.211C428.967 140.398 337.896 146.013 266.5 127.209C194 108.115 101.5 85.4081 0 64.2496V-1.52588e-05H40C80 -1.52588e-05 160 -1.52588e-05 240 -1.52588e-05C320 -1.52588e-05 400 -1.52588e-05 480 -1.52588e-05C560 -1.52588e-05 640 -1.52588e-05 720 -1.52588e-05C800 -1.52588e-05 880 -1.52588e-05 960 -1.52588e-05C1040 -1.52588e-05 1120 -1.52588e-05 1200 -1.52588e-05C1280 -1.52588e-05 1360 -1.52588e-05 1400 -1.52588e-05H1440V25.803Z" fill="#FFECCD"/>
</svg>
