<svg width="1440" height="268" viewBox="0 0 1440 268" fill="none" xmlns="http://www.w3.org/2000/svg">
<path fill-rule="evenodd" clip-rule="evenodd" d="M0 218C76.384 193.448 89.1622 190.592 166.5 169.5C183 165 378.598 104.054 465 134C553 164.5 640 195.313 720 176C800 156.687 834 128.5 935.5 52.5001C1011.03 -4.05638 1102.1 -14.9365 1173.5 21.5001C1246 58.5 1338.5 102.5 1440 143.5V268H1400C1360 268 1280 268 1200 268C1120 268 1040 268 960 268C880 268 800 268 720 268C640 268 560 268 480 268C400 268 320 268 240 268C160 268 80 268 40 268H0V218Z" fill="white"/>
</svg>
