<svg width="1440" height="318" viewBox="0 0 1440 318" fill="none" xmlns="http://www.w3.org/2000/svg">
<path fill-rule="evenodd" clip-rule="evenodd" d="M0 285.5C76.384 260.948 78.5 184 240 153.5C304 141.413 366.098 173.554 452.5 203.5C540.5 234 580 259.813 660 240.5C740 221.187 819.5 130 855.5 93C938.081 8.12543 1109.5 -32 1229.5 31C1310.79 73.6761 1401 154.5 1440 183.5V318H1400C1360 318 1280 318 1200 318C1120 318 1040 318 960 318C880 318 800 318 720 318C640 318 560 318 480 318C400 318 320 318 240 318C160 318 80 318 40 318H0V285.5Z" fill="#FF671B" fill-opacity="0.48"/>
</svg>
